<svg xmlns="http://www.w3.org/2000/svg" xmlns:xlink="http://www.w3.org/1999/xlink" aria-hidden="true" focusable="false" width="1em" height="1em" style="-ms-transform: rotate(360deg); -webkit-transform: rotate(360deg); transform: rotate(360deg);" preserveAspectRatio="xMidYMid meet" viewBox="0 0 24 24"><path d="M15 6v2H3V6h12m0 4v2H3v-2h12M3 16v-2h8v2H3M17 6h5v2h-3v9a3 3 0 0 1-3 3a3 3 0 0 1-3-3a3 3 0 0 1 3-3c.35 0 .69.07 1 .18V6m-1 10a1 1 0 0 0-1 1a1 1 0 0 0 1 1a1 1 0 0 0 1-1a1 1 0 0 0-1-1z" fill="#626262"/></svg>