<svg xmlns="http://www.w3.org/2000/svg" xmlns:xlink="http://www.w3.org/1999/xlink" aria-hidden="true" focusable="false" width="1em" height="1em" style="-ms-transform: rotate(360deg); -webkit-transform: rotate(360deg); transform: rotate(360deg);" preserveAspectRatio="xMidYMid meet" viewBox="0 0 24 24"><path d="M19 3H5a2 2 0 0 0-2 2v14a2 2 0 0 0 2 2h14a2 2 0 0 0 2-2V5a2 2 0 0 0-2-2m0 16H5V5h14v14M17 8.4L13.4 12l3.6 3.6l-1.4 1.4l-3.6-3.6L8.4 17L7 15.6l3.6-3.6L7 8.4L8.4 7l3.6 3.6L15.6 7L17 8.4z" fill="#626262"/></svg>