<svg xmlns="http://www.w3.org/2000/svg" width="24" height="24" viewBox="0 0 24 24"><path fill="#626262" d="m21.41 11.58l-9-9C12.04 2.21 11.53 2 11 2H4c-.53 0-1.04.21-1.41.59C2.21 2.96 2 3.47 2 4v7c0 .26.05.53.15.77c.1.23.25.46.44.65l1.98 1.98L6 13l-2-2V4h7l9 9l-7 7l-2.13-2.13l-.17.17v-.01l-1.25 1.25l2.14 2.14c.38.37.88.58 1.41.58s1.04-.21 1.41-.59l7-7c.38-.37.59-.88.59-1.41c0-.26-.05-.5-.15-.77c-.1-.23-.25-.46-.44-.65M6.5 5a1.5 1.5 0 0 1 1.39.93c.11.27.14.57.08.86s-.2.56-.41.77s-.48.35-.77.41s-.59.03-.86-.08A1.5 1.5 0 0 1 6.5 5m4.2 10.35l1-1a.55.55 0 0 0 0-.77l-1.28-1.28a.55.55 0 0 0-.77 0l-1 1zm-2.64-1.47L2 19.94V22h2.06l6.05-6.07z"/></svg>